<svg width="281" height="18" viewBox="0 0 281 18" fill="none" xmlns="http://www.w3.org/2000/svg">
<path d="M0.210938 17V1H6.82031C8.01823 1 9.05208 1.23437 9.92188 1.70312C10.7969 2.16667 11.4714 2.8151 11.9453 3.64844C12.4193 4.47656 12.6562 5.4401 12.6562 6.53906C12.6562 7.64323 12.4141 8.60937 11.9297 9.4375C11.4505 10.2604 10.7656 10.8984 9.875 11.3516C8.98438 11.8047 7.92708 12.0312 6.70313 12.0312H2.625V8.98437H5.98438C6.56771 8.98437 7.05469 8.88281 7.44531 8.67969C7.84115 8.47656 8.14063 8.19271 8.34375 7.82812C8.54688 7.45833 8.64844 7.02865 8.64844 6.53906C8.64844 6.04427 8.54688 5.61719 8.34375 5.25781C8.14063 4.89323 7.84115 4.61198 7.44531 4.41406C7.04948 4.21615 6.5625 4.11719 5.98438 4.11719H4.07813V17H0.210938ZM32.6341 9C32.6341 10.7604 32.2955 12.2526 31.6184 13.4766C30.9414 14.7005 30.0247 15.6302 28.8684 16.2656C27.7174 16.901 26.4257 17.2187 24.9934 17.2187C23.5559 17.2187 22.2617 16.8984 21.1106 16.2578C19.9596 15.6172 19.0455 14.6875 18.3684 13.4687C17.6966 12.2448 17.3606 10.7552 17.3606 9C17.3606 7.23958 17.6966 5.7474 18.3684 4.52344C19.0455 3.29948 19.9596 2.36979 21.1106 1.73437C22.2617 1.09896 23.5559 0.781249 24.9934 0.781249C26.4257 0.781249 27.7174 1.09896 28.8684 1.73437C30.0247 2.36979 30.9414 3.29948 31.6184 4.52344C32.2955 5.7474 32.6341 7.23958 32.6341 9ZM28.6809 9C28.6809 7.95833 28.5325 7.07812 28.2356 6.35937C27.944 5.64062 27.5221 5.09635 26.97 4.72656C26.4231 4.35677 25.7643 4.17187 24.9934 4.17187C24.2278 4.17187 23.569 4.35677 23.0169 4.72656C22.4648 5.09635 22.0403 5.64062 21.7434 6.35937C21.4518 7.07812 21.3059 7.95833 21.3059 9C21.3059 10.0417 21.4518 10.9219 21.7434 11.6406C22.0403 12.3594 22.4648 12.9036 23.0169 13.2734C23.569 13.6432 24.2278 13.8281 24.9934 13.8281C25.7643 13.8281 26.4231 13.6432 26.97 13.2734C27.5221 12.9036 27.944 12.3594 28.2356 11.6406C28.5325 10.9219 28.6809 10.0417 28.6809 9ZM37.8619 17V1H44.4712C45.6692 1 46.703 1.23437 47.5728 1.70312C48.4478 2.16667 49.1223 2.8151 49.5962 3.64844C50.0702 4.47656 50.3072 5.4401 50.3072 6.53906C50.3072 7.64323 50.065 8.60937 49.5806 9.4375C49.1015 10.2604 48.4166 10.8984 47.5259 11.3516C46.6353 11.8047 45.578 12.0312 44.3541 12.0312H40.2759V8.98437H43.6353C44.2186 8.98437 44.7056 8.88281 45.0962 8.67969C45.4921 8.47656 45.7916 8.19271 45.9947 7.82812C46.1978 7.45833 46.2994 7.02865 46.2994 6.53906C46.2994 6.04427 46.1978 5.61719 45.9947 5.25781C45.7916 4.89323 45.4921 4.61198 45.0962 4.41406C44.7004 4.21615 44.2134 4.11719 43.6353 4.11719H41.7291V17H37.8619ZM64.8631 1H68.7225V11.3203C68.7225 12.513 68.4386 13.5521 67.8709 14.4375C67.3032 15.3177 66.5116 16 65.4959 16.4844C64.4803 16.9635 63.3006 17.2031 61.9569 17.2031C60.5975 17.2031 59.41 16.9635 58.3944 16.4844C57.3787 16 56.5897 15.3177 56.0272 14.4375C55.4647 13.5521 55.1834 12.513 55.1834 11.3203V1H59.0506V10.9844C59.0506 11.5365 59.1704 12.0286 59.41 12.4609C59.6548 12.8932 59.9959 13.2318 60.4334 13.4766C60.8709 13.7214 61.3788 13.8438 61.9569 13.8438C62.535 13.8438 63.0402 13.7214 63.4725 13.4766C63.91 13.2318 64.2511 12.8932 64.4959 12.4609C64.7407 12.0286 64.8631 11.5365 64.8631 10.9844V1ZM74.1163 17V1H77.9835V13.8594H84.6398V17H74.1163ZM93.2875 17H89.1312L94.5297 1H99.6781L105.077 17H100.92L97.1625 5.03125H97.0375L93.2875 17ZM92.7328 10.7031H101.42V13.6406H92.7328V10.7031ZM109.769 17V1H116.379C117.577 1 118.61 1.21615 119.48 1.64844C120.355 2.07552 121.03 2.6901 121.504 3.49219C121.978 4.28906 122.215 5.23437 122.215 6.32812C122.215 7.4375 121.972 8.38021 121.488 9.15625C121.004 9.92708 120.316 10.5156 119.425 10.9219C118.535 11.3229 117.48 11.5234 116.261 11.5234H112.082V8.47656H115.543C116.126 8.47656 116.613 8.40104 117.004 8.25C117.399 8.09375 117.699 7.85937 117.902 7.54688C118.105 7.22917 118.207 6.82292 118.207 6.32812C118.207 5.83333 118.105 5.42448 117.902 5.10156C117.699 4.77344 117.399 4.52865 117.004 4.36719C116.608 4.20052 116.121 4.11719 115.543 4.11719H113.636V17H109.769ZM118.777 9.6875L122.761 17H118.543L114.636 9.6875H118.777ZM134.479 4.14062V1H148.002V4.14062H143.151V17H139.338V4.14062H134.479ZM152.861 17V1H156.728V7.42187H163.033V1H166.892V17H163.033V10.5703H156.728V17H152.861ZM176.155 1V17H172.288V1H176.155ZM190.201 5.79687C190.149 5.22396 189.917 4.77865 189.506 4.46094C189.1 4.13802 188.519 3.97656 187.764 3.97656C187.264 3.97656 186.847 4.04167 186.514 4.17187C186.18 4.30208 185.93 4.48177 185.764 4.71094C185.597 4.9349 185.511 5.19271 185.506 5.48438C185.496 5.72396 185.542 5.9349 185.647 6.11719C185.756 6.29948 185.912 6.46094 186.115 6.60156C186.324 6.73698 186.574 6.85677 186.865 6.96094C187.157 7.0651 187.485 7.15625 187.85 7.23437L189.225 7.54688C190.016 7.71875 190.714 7.94792 191.318 8.23438C191.928 8.52083 192.438 8.86198 192.85 9.25781C193.266 9.65365 193.581 10.1094 193.795 10.625C194.009 11.1406 194.118 11.7187 194.123 12.3594C194.118 13.3698 193.863 14.237 193.357 14.9609C192.852 15.6849 192.126 16.2396 191.178 16.625C190.235 17.0104 189.097 17.2031 187.764 17.2031C186.425 17.2031 185.259 17.0026 184.264 16.6016C183.269 16.2005 182.496 15.5911 181.943 14.7734C181.391 13.9557 181.107 12.9219 181.092 11.6719H184.795C184.826 12.1875 184.964 12.6172 185.209 12.9609C185.454 13.3047 185.79 13.5651 186.217 13.7422C186.649 13.9193 187.149 14.0078 187.717 14.0078C188.238 14.0078 188.68 13.9375 189.045 13.7969C189.415 13.6563 189.699 13.4609 189.897 13.2109C190.094 12.9609 190.196 12.6745 190.201 12.3516C190.196 12.0495 190.102 11.7917 189.92 11.5781C189.738 11.3594 189.456 11.1719 189.076 11.0156C188.701 10.8542 188.222 10.7057 187.639 10.5703L185.967 10.1797C184.581 9.86198 183.49 9.34896 182.693 8.64062C181.897 7.92708 181.501 6.96354 181.506 5.75C181.501 4.76042 181.766 3.89323 182.303 3.14844C182.839 2.40365 183.581 1.82292 184.529 1.40625C185.477 0.989583 186.558 0.781249 187.772 0.781249C189.011 0.781249 190.087 0.992187 190.998 1.41406C191.915 1.83073 192.626 2.41667 193.131 3.17188C193.636 3.92708 193.894 4.80208 193.904 5.79687H190.201ZM210.579 17L205.923 1H210.196L212.61 11.4844H212.743L215.501 1H218.985L221.743 11.5078H221.876L224.298 1H228.563L223.915 17H220.188L217.305 7.29687H217.18L214.298 17H210.579ZM233.131 17V1H244.287V4.14062H236.998V7.42187H243.717V10.5703H236.998V13.8594H244.287V17H233.131ZM249.679 17V1H260.835V4.14062H253.546V7.42187H260.265V10.5703H253.546V13.8594H260.835V17H249.679ZM266.227 17V1H270.094V7.76562H270.305L275.594 1H280.149L274.477 8.14062L280.25 17H275.625L271.641 10.7109L270.094 12.6641V17H266.227Z" fill="white"/>
</svg>
