<svg width="184" height="25" viewBox="0 0 184 25" fill="none" xmlns="http://www.w3.org/2000/svg">
<path d="M2.952 18.76C3.032 17.752 3.072 16.472 3.072 14.92V4.168C2.864 4.168 2.52 4.216 2.04 4.312C1.56 4.392 1.136 4.472 0.768 4.552L0.672 4.408L1.224 2.2H10.56L9.816 0.855999L9.888 0.759999H12.288L13.848 6.232L12.336 6.784L12.216 6.568C11.88 5.976 11.464 5.504 10.968 5.152C10.488 4.8 9.864 4.544 9.096 4.384C8.328 4.224 7.368 4.144 6.216 4.144H5.712V9.52H8.04C8.072 9.52 8.088 9.504 8.088 9.472V8.08H10.248L9.816 13.36H8.088V11.848C8.088 11.816 8.072 11.8 8.04 11.8H5.712V17.032C6.032 17.032 6.592 16.984 7.392 16.888C8.208 16.792 8.776 16.704 9.096 16.624L9.192 16.768L8.64 19H2.952V18.76ZM25.8354 11.032L23.8674 11.728C23.5794 11.04 23.2834 10.496 22.9794 10.096C22.6754 9.68 22.3394 9.384 21.9714 9.208C21.6194 9.032 21.2114 8.944 20.7474 8.944C20.3154 8.944 19.9234 9.064 19.5714 9.304C19.2354 9.528 18.9634 9.856 18.7554 10.288C18.5634 10.72 18.4674 11.216 18.4674 11.776V17.176C18.7234 17.176 19.1474 17.136 19.7394 17.056C20.3474 16.976 20.8514 16.896 21.2514 16.816L21.3234 16.96L20.8674 19H16.0194V18.76C16.0834 17.416 16.1154 16.136 16.1154 14.92V8.824C15.7794 8.824 15.2274 8.92 14.4594 9.112L14.1474 9.184L14.0754 9.04L14.5314 7H16.2354C16.5394 7 16.8994 6.992 17.3154 6.976C17.7314 6.944 18.0354 6.912 18.2274 6.88L18.2754 7.048L18.2514 7.48C18.2354 7.624 18.2194 7.768 18.2034 7.912C18.2034 8.056 18.2034 8.2 18.2034 8.344C18.4434 7.88 18.8354 7.512 19.3794 7.24C19.9394 6.952 20.4514 6.808 20.9154 6.808C21.1714 6.808 21.4114 6.84 21.6354 6.904C21.8754 6.952 22.0994 7.032 22.3074 7.144C22.3874 7.192 22.4674 7.248 22.5474 7.312C22.6274 7.36 22.7074 7.416 22.7874 7.48L22.2594 6.28L22.3794 6.16H24.5154L25.8354 11.032ZM28.6991 18.76C28.7631 17.416 28.7951 16.136 28.7951 14.92V8.824C28.4591 8.824 27.9071 8.92 27.1391 9.112L26.8271 9.184L26.7551 9.04L27.2111 7H29.2031C29.5391 7 29.9071 6.992 30.3071 6.976C30.7071 6.944 31.0191 6.912 31.2431 6.88L31.2671 7.048C31.1871 8.296 31.1471 9.64 31.1471 11.08V17.176C31.3391 17.176 31.8431 17.088 32.6591 16.912L33.0911 16.816L33.1631 16.96L32.7071 19H28.6991V18.76ZM31.5551 1.12L29.7791 5.44H29.5391L27.7631 1.12H31.5551ZM40.5906 19.24C39.4706 19.24 38.4626 18.968 37.5666 18.424C36.6706 17.88 35.9666 17.136 35.4546 16.192C34.9426 15.232 34.6866 14.168 34.6866 13C34.6866 11.816 34.9426 10.752 35.4546 9.808C35.9666 8.848 36.6706 8.104 37.5666 7.576C38.4626 7.032 39.4706 6.76 40.5906 6.76C41.3586 6.76 42.0706 6.904 42.7266 7.192C43.3826 7.48 43.9266 7.888 44.3586 8.416V4.024C43.9746 4.024 43.3666 4.12 42.5346 4.312C42.3906 4.328 42.2706 4.352 42.1746 4.384L42.0786 4.24L42.6066 2.2H44.7906C45.1266 2.2 45.4866 2.192 45.8706 2.176C46.2546 2.144 46.5586 2.112 46.7826 2.08L46.8306 2.248C46.8146 2.536 46.7986 2.84 46.7826 3.16C46.7826 3.48 46.7746 3.808 46.7586 4.144C46.7426 4.496 46.7266 4.856 46.7106 5.224C46.7106 5.576 46.7106 5.928 46.7106 6.28V17.176C46.9986 17.176 47.5266 17.08 48.2946 16.888C48.3586 16.872 48.4226 16.864 48.4866 16.864C48.5506 16.848 48.6146 16.832 48.6786 16.816L48.7506 16.96L48.2946 19H44.5506V18.76C44.5666 18.648 44.5746 18.528 44.5746 18.4C44.5746 18.272 44.5826 18.152 44.5986 18.04C44.5986 17.928 44.5986 17.816 44.5986 17.704C44.6146 17.576 44.6226 17.456 44.6226 17.344C44.1586 17.936 43.5746 18.4 42.8706 18.736C42.1826 19.072 41.4226 19.24 40.5906 19.24ZM40.8066 17.2C41.4946 17.2 42.1186 17.016 42.6786 16.648C43.2386 16.28 43.6786 15.776 43.9986 15.136C44.3186 14.496 44.4786 13.784 44.4786 13C44.4786 12.216 44.3186 11.504 43.9986 10.864C43.6786 10.224 43.2386 9.72 42.6786 9.352C42.1186 8.984 41.4946 8.8 40.8066 8.8C40.1186 8.8 39.4946 8.984 38.9346 9.352C38.3746 9.72 37.9346 10.224 37.6146 10.864C37.2946 11.504 37.1346 12.216 37.1346 13C37.1346 13.784 37.2946 14.496 37.6146 15.136C37.9346 15.776 38.3746 16.28 38.9346 16.648C39.4946 17.016 40.1186 17.2 40.8066 17.2ZM54.3291 19.264C53.0171 19.264 52.0011 18.952 51.2811 18.328C50.5611 17.704 50.2011 16.904 50.2011 15.928C50.2011 14.952 50.4891 14.2 51.0651 13.672C51.6571 13.144 52.3531 12.776 53.1531 12.568C53.9691 12.36 54.9611 12.2 56.1291 12.088C56.7851 12.024 57.3131 11.952 57.7131 11.872C58.1291 11.792 58.4651 11.664 58.7211 11.488C58.9771 11.296 59.1051 11.04 59.1051 10.72C59.1051 10.08 58.8731 9.584 58.4091 9.232C57.9451 8.864 57.3211 8.68 56.5371 8.68C55.9611 8.68 55.4251 8.8 54.9291 9.04C54.4331 9.28 54.0011 9.616 53.6331 10.048C53.2651 10.464 52.9931 10.936 52.8171 11.464L52.7931 11.536L51.0651 11.2L52.3851 6.16H54.4971L54.5931 6.28L54.1371 7.456C54.3771 7.312 54.6011 7.2 54.8091 7.12C55.0971 7.008 55.4091 6.92 55.7451 6.856C56.0971 6.792 56.4891 6.76 56.9211 6.76C58.2331 6.76 59.2731 7.184 60.0411 8.032C60.8251 8.88 61.2171 10.032 61.2171 11.488V17.176C61.4411 17.176 61.9931 17.08 62.8731 16.888C62.9211 16.872 62.9691 16.864 63.0171 16.864C63.0651 16.848 63.1131 16.832 63.1611 16.816L63.2571 16.96L62.7771 19H59.0571V18.76C59.0731 18.632 59.0811 18.472 59.0811 18.28C59.0971 18.088 59.1051 17.888 59.1051 17.68C59.1051 17.552 59.1051 17.44 59.1051 17.344C59.1211 17.232 59.1291 17.136 59.1291 17.056C58.6971 17.728 58.0411 18.264 57.1611 18.664C56.2971 19.064 55.3531 19.264 54.3291 19.264ZM54.7131 17.296C55.4971 17.296 56.2251 17.128 56.8971 16.792C57.5851 16.44 58.1211 15.976 58.5051 15.4C58.9051 14.824 59.1051 14.208 59.1051 13.552V13.072C58.8011 13.28 58.3691 13.464 57.8091 13.624C57.2491 13.768 56.7051 13.856 56.1771 13.888C55.0571 13.952 54.1771 14.12 53.5371 14.392C52.9131 14.664 52.6011 15.136 52.6011 15.808C52.6011 16.288 52.7851 16.656 53.1531 16.912C53.5371 17.168 54.0571 17.296 54.7131 17.296ZM63.7903 19.456L65.5183 18.952L65.5423 19.048L65.6623 19.384C65.8863 19.944 66.1263 20.424 66.3823 20.824C66.6383 21.224 66.9183 21.528 67.2223 21.736C67.5423 21.96 67.8863 22.072 68.2543 22.072C68.5583 22.072 68.7983 21.968 68.9743 21.76C69.1503 21.552 69.2383 21.24 69.2383 20.824V20.488C69.2383 20.136 69.1983 19.776 69.1183 19.408C69.0543 19.04 68.9423 18.68 68.7823 18.328C68.7663 18.312 68.7583 18.296 68.7583 18.28C68.7583 18.248 68.7503 18.224 68.7343 18.208L65.8063 12.352C65.2143 11.12 64.4543 9.712 63.5263 8.128L62.9743 7.192V7H68.4703L68.8783 8.824L68.7823 8.992C68.5903 8.912 68.2703 8.864 67.8223 8.848C67.3743 8.832 66.9903 8.824 66.6703 8.824L70.0783 16.048C70.1103 16.112 70.1423 16.184 70.1743 16.264C70.2063 16.328 70.2383 16.392 70.2703 16.456C70.3023 16.536 70.3263 16.616 70.3423 16.696C70.3743 16.76 70.4063 16.832 70.4383 16.912C70.4543 16.832 70.4783 16.752 70.5103 16.672C70.5423 16.592 70.5743 16.512 70.6063 16.432C70.6383 16.352 70.6623 16.28 70.6783 16.216C70.6943 16.136 70.7183 16.056 70.7503 15.976L72.7183 10.864C72.7663 10.752 72.9023 10.376 73.1263 9.736C73.1903 9.576 73.2463 9.424 73.2943 9.28C73.3583 9.12 73.4063 8.968 73.4383 8.824C73.1663 8.824 72.8303 8.848 72.4303 8.896C72.0303 8.944 71.7023 9.008 71.4463 9.088L71.3023 8.968L71.8063 7H76.5583V7.216C76.3983 7.568 76.2783 7.824 76.1983 7.984C75.5103 9.456 74.9663 10.672 74.5663 11.632L72.0463 17.752C71.9023 18.12 71.7823 18.48 71.6863 18.832C71.6063 19.168 71.5663 19.496 71.5663 19.816V20.488C71.5663 21.656 71.3023 22.536 70.7743 23.128C70.2623 23.736 69.6063 24.04 68.8063 24.04C68.5023 24.04 68.2143 24.016 67.9423 23.968C67.6863 23.92 67.4463 23.848 67.2223 23.752C66.9823 23.64 66.7903 23.536 66.6463 23.44L66.9823 24.424L66.9103 24.52H64.9423L63.7903 19.456ZM85.2984 19.72L83.5224 12.928L85.5144 12.304L85.5864 12.472C85.9544 13.448 86.3624 14.272 86.8104 14.944C87.2584 15.616 87.7304 16.12 88.2264 16.456C88.7224 16.792 89.2264 16.96 89.7384 16.96C90.2024 16.96 90.6024 16.864 90.9384 16.672C91.2744 16.48 91.5304 16.168 91.7064 15.736C91.8824 15.304 91.9704 14.744 91.9704 14.056V4.168C91.7624 4.168 91.3784 4.208 90.8184 4.288C90.2744 4.368 89.7304 4.456 89.1864 4.552L89.0904 4.408L89.6424 2.2H94.8744V2.44C94.7784 3.512 94.7304 4.792 94.7304 6.28V14.056C94.7304 15.032 94.5464 15.912 94.1784 16.696C93.8104 17.48 93.2824 18.104 92.5944 18.568C91.9064 19.016 91.0984 19.24 90.1704 19.24C89.5304 19.24 89.0104 19.144 88.6104 18.952C88.2104 18.744 87.8184 18.48 87.4344 18.16C87.2904 18.032 87.1304 17.912 86.9544 17.8L87.7224 19.576L87.6264 19.72H85.2984ZM104.356 19.24C103.316 19.24 102.404 19.016 101.62 18.568C100.852 18.104 100.26 17.448 99.8443 16.6C99.4283 15.752 99.2203 14.76 99.2203 13.624V8.824C98.8683 8.824 98.3243 8.92 97.5883 9.112L97.2763 9.184L97.1803 9.04L97.6603 7H99.6523C99.9563 7 100.316 6.992 100.732 6.976C101.148 6.944 101.452 6.912 101.644 6.88L101.668 7.048C101.604 8.056 101.572 9.4 101.572 11.08V13.552C101.572 14.624 101.86 15.48 102.436 16.12C103.028 16.76 103.812 17.08 104.788 17.08C105.396 17.08 105.948 16.92 106.444 16.6C106.94 16.28 107.324 15.84 107.596 15.28C107.884 14.72 108.028 14.096 108.028 13.408V10.672C108.028 9.472 107.988 8.32 107.908 7.216V7H108.484C108.788 7 109.148 6.992 109.564 6.976C109.98 6.944 110.276 6.912 110.452 6.88L110.5 7.048C110.42 8.296 110.38 9.64 110.38 11.08V17.176C110.668 17.176 111.196 17.08 111.964 16.888C112.028 16.872 112.092 16.864 112.156 16.864C112.22 16.848 112.284 16.832 112.348 16.816L112.42 16.96L111.964 19H108.244V18.76C108.26 18.648 108.268 18.536 108.268 18.424C108.268 18.296 108.268 18.168 108.268 18.04C108.268 17.912 108.268 17.792 108.268 17.68C108.284 17.568 108.292 17.448 108.292 17.32C107.876 17.912 107.324 18.384 106.636 18.736C105.964 19.072 105.204 19.24 104.356 19.24ZM115.321 18.76C115.385 17.416 115.417 16.136 115.417 14.92V4.024C115.081 4.024 114.529 4.12 113.761 4.312L113.449 4.384L113.377 4.24L113.833 2.2H115.825C116.161 2.2 116.529 2.192 116.929 2.176C117.329 2.144 117.641 2.112 117.865 2.08L117.889 2.248C117.873 2.744 117.849 3.376 117.817 4.144C117.785 5.072 117.769 5.784 117.769 6.28V17.032C117.945 17.032 118.249 16.984 118.681 16.888C119.129 16.792 119.521 16.704 119.857 16.624L119.929 16.768L119.449 19H115.321V18.76ZM121.212 19.456L122.94 18.952L122.964 19.048L123.084 19.384C123.308 19.944 123.548 20.424 123.804 20.824C124.06 21.224 124.34 21.528 124.644 21.736C124.964 21.96 125.308 22.072 125.676 22.072C125.98 22.072 126.22 21.968 126.396 21.76C126.572 21.552 126.66 21.24 126.66 20.824V20.488C126.66 20.136 126.62 19.776 126.54 19.408C126.476 19.04 126.364 18.68 126.204 18.328C126.188 18.312 126.18 18.296 126.18 18.28C126.18 18.248 126.172 18.224 126.156 18.208L123.228 12.352C122.636 11.12 121.876 9.712 120.948 8.128L120.396 7.192V7H125.892L126.3 8.824L126.204 8.992C126.012 8.912 125.692 8.864 125.244 8.848C124.796 8.832 124.412 8.824 124.092 8.824L127.5 16.048C127.532 16.112 127.564 16.184 127.596 16.264C127.628 16.328 127.66 16.392 127.692 16.456C127.724 16.536 127.748 16.616 127.764 16.696C127.796 16.76 127.828 16.832 127.86 16.912C127.876 16.832 127.9 16.752 127.932 16.672C127.964 16.592 127.996 16.512 128.028 16.432C128.06 16.352 128.084 16.28 128.1 16.216C128.116 16.136 128.14 16.056 128.172 15.976L130.14 10.864C130.188 10.752 130.324 10.376 130.548 9.736C130.612 9.576 130.668 9.424 130.716 9.28C130.78 9.12 130.828 8.968 130.86 8.824C130.588 8.824 130.252 8.848 129.852 8.896C129.452 8.944 129.124 9.008 128.868 9.088L128.724 8.968L129.228 7H133.98V7.216C133.82 7.568 133.7 7.824 133.62 7.984C132.932 9.456 132.388 10.672 131.988 11.632L129.468 17.752C129.324 18.12 129.204 18.48 129.108 18.832C129.028 19.168 128.988 19.496 128.988 19.816V20.488C128.988 21.656 128.724 22.536 128.196 23.128C127.684 23.736 127.028 24.04 126.228 24.04C125.924 24.04 125.636 24.016 125.364 23.968C125.108 23.92 124.868 23.848 124.644 23.752C124.404 23.64 124.212 23.536 124.068 23.44L124.404 24.424L124.332 24.52H122.364L121.212 19.456ZM148.36 19.36C147.016 19.36 145.824 19.152 144.784 18.736C143.744 18.304 142.928 17.712 142.336 16.96C141.76 16.192 141.472 15.336 141.472 14.392C141.472 13.512 141.744 12.728 142.288 12.04C142.848 11.336 143.624 10.792 144.616 10.408C144.056 10.168 143.56 9.864 143.128 9.496C142.712 9.112 142.392 8.68 142.168 8.2C141.944 7.72 141.832 7.216 141.832 6.688C141.832 5.776 142.104 4.952 142.648 4.216C143.208 3.48 143.984 2.912 144.976 2.512C145.968 2.096 147.096 1.888 148.36 1.888C149.64 1.888 150.776 2.096 151.768 2.512C152.76 2.912 153.528 3.48 154.072 4.216C154.632 4.952 154.912 5.776 154.912 6.688C154.912 7.216 154.8 7.72 154.576 8.2C154.352 8.68 154.024 9.112 153.592 9.496C153.176 9.864 152.68 10.168 152.104 10.408C153.096 10.792 153.872 11.336 154.432 12.04C154.992 12.728 155.272 13.512 155.272 14.392C155.272 15.336 154.976 16.192 154.384 16.96C153.808 17.712 152.992 18.304 151.936 18.736C150.896 19.152 149.704 19.36 148.36 19.36ZM148.36 17.224C149.208 17.224 149.96 17.104 150.616 16.864C151.272 16.608 151.784 16.264 152.152 15.832C152.52 15.384 152.704 14.88 152.704 14.32C152.704 13.76 152.52 13.264 152.152 12.832C151.784 12.384 151.272 12.04 150.616 11.8C149.96 11.544 149.208 11.416 148.36 11.416C147.528 11.416 146.776 11.544 146.104 11.8C145.448 12.04 144.936 12.384 144.568 12.832C144.2 13.264 144.016 13.76 144.016 14.32C144.016 14.88 144.2 15.384 144.568 15.832C144.936 16.264 145.448 16.608 146.104 16.864C146.776 17.104 147.528 17.224 148.36 17.224ZM148.36 9.496C149.144 9.496 149.848 9.384 150.472 9.16C151.096 8.92 151.584 8.592 151.936 8.176C152.288 7.744 152.464 7.264 152.464 6.736C152.464 6.208 152.288 5.736 151.936 5.32C151.584 4.904 151.096 4.584 150.472 4.36C149.848 4.12 149.144 4 148.36 4C147.576 4 146.872 4.12 146.248 4.36C145.624 4.584 145.136 4.904 144.784 5.32C144.432 5.736 144.256 6.208 144.256 6.736C144.256 7.264 144.432 7.744 144.784 8.176C145.136 8.592 145.624 8.92 146.248 9.16C146.872 9.384 147.576 9.496 148.36 9.496ZM164.75 19.72L165.254 18.4C165.174 18.48 165.086 18.552 164.99 18.616C164.894 18.68 164.79 18.736 164.678 18.784C164.454 18.928 164.206 19.04 163.934 19.12C163.662 19.2 163.374 19.24 163.07 19.24C161.918 19.24 161.046 18.928 160.454 18.304C159.862 17.664 159.566 16.744 159.566 15.544V8.872H158.606C158.446 8.872 158.19 8.904 157.838 8.968C157.486 9.016 157.166 9.072 156.878 9.136L156.662 9.184L156.59 9.04L157.046 7L158.39 7.024C158.726 7.04 159.006 7 159.23 6.904C159.454 6.808 159.622 6.664 159.734 6.472C159.846 6.264 159.902 6.008 159.902 5.704V4.12C160.27 4.12 160.622 4.112 160.958 4.096C161.31 4.08 161.63 4.064 161.918 4.048V7H162.566C163.094 7 163.894 6.968 164.966 6.904C166.038 6.824 166.734 6.76 167.054 6.712L167.15 6.856L166.67 8.872H161.918V12.04C161.918 12.472 161.91 12.872 161.894 13.24C161.878 13.608 161.854 13.944 161.822 14.248C161.806 14.456 161.79 14.648 161.774 14.824C161.774 15 161.774 15.176 161.774 15.352C161.774 15.976 161.918 16.456 162.206 16.792C162.51 17.128 162.918 17.296 163.43 17.296C163.766 17.296 164.102 17.192 164.438 16.984C164.774 16.776 165.078 16.512 165.35 16.192C165.622 15.872 165.822 15.544 165.95 15.208L166.07 14.848L167.822 15.208L166.958 19.816H164.846L164.75 19.72ZM170.587 18.76C170.651 17.416 170.683 16.136 170.683 14.92V4.024C170.347 4.024 169.795 4.12 169.027 4.312L168.715 4.384L168.643 4.24L169.099 2.2H171.091C171.411 2.2 171.779 2.192 172.195 2.176C172.611 2.144 172.915 2.112 173.107 2.08L173.131 2.248C173.115 2.744 173.091 3.376 173.059 4.144C173.027 5.072 173.011 5.784 173.011 6.28V8.392C173.459 7.88 173.995 7.48 174.619 7.192C175.259 6.904 175.931 6.76 176.635 6.76C177.691 6.76 178.611 6.992 179.395 7.456C180.179 7.904 180.779 8.552 181.195 9.4C181.627 10.248 181.843 11.232 181.843 12.352V17.176C182.067 17.176 182.619 17.08 183.499 16.888C183.547 16.872 183.595 16.864 183.643 16.864C183.691 16.848 183.739 16.832 183.787 16.816L183.883 16.96L183.403 19H179.371V18.76C179.435 17.752 179.467 16.472 179.467 14.92V12.592C179.467 11.456 179.171 10.56 178.579 9.904C178.003 9.232 177.227 8.896 176.251 8.896C175.643 8.896 175.091 9.056 174.595 9.376C174.115 9.696 173.731 10.144 173.443 10.72C173.171 11.28 173.035 11.904 173.035 12.592V14.92C173.035 16.136 173.067 17.416 173.131 18.76V19H170.587V18.76Z" fill="#C8C8C8"/>
</svg>
