<svg width="512" height="512" viewBox="0 0 512 512" fill="none" xmlns="http://www.w3.org/2000/svg">
<rect width="512" height="512" fill="black"/>
<path d="M363.853 225.763C354.085 225.763 347.705 219.304 347.705 209.773C347.705 200.4 354.164 194.019 363.853 194.019H389.374V225.763H363.853ZM410.721 175.587H361.332C340.38 175.587 326.044 189.293 326.044 208.985C326.044 224.581 334.945 236.397 349.044 240.493L322.105 281.532H345.972L370.233 244.195H389.296V281.532H410.721V175.587ZM143.535 203.393V171.412H185.047V262.076H132.98C138.573 252.308 143.535 229.701 143.535 203.393ZM207.023 150.932H122.347V204.259C122.347 231.435 117.541 252.624 111.161 262.155H101V310.519H121.953V281.925H201.195V310.519H222.147V262.155H207.023V150.932ZM270.905 263.572L269.015 262.312L293.748 175.587H243.73L238.373 194.885L267.439 194.649L248.535 260.816C245.227 272.867 253.34 284.052 266.573 284.052C270.748 284.052 274.844 283.028 279.412 280.114L313.441 257.113L303.043 241.753L270.905 263.572ZM285.399 155.659C295.954 155.659 300.365 151.72 300.365 142.347C300.365 132.579 295.796 128.641 285.399 128.641C275.001 128.641 270.433 132.579 270.433 142.347C270.511 151.72 274.844 155.659 285.399 155.659Z" fill="white"/>
<rect x="216" y="343" width="80" height="60" rx="6" fill="url(#paint0_linear_7_144)"/>
<defs>
<linearGradient id="paint0_linear_7_144" x1="256" y1="343" x2="256" y2="403" gradientUnits="userSpaceOnUse">
<stop stop-color="#2137FC"/>
<stop offset="0.500069" stop-color="#2137FB"/>
<stop offset="0.500405" stop-color="#FFD84B"/>
<stop offset="1" stop-color="#FFD84B"/>
</linearGradient>
</defs>
</svg>
