<svg width="520" height="520" viewBox="0 0 520 520" fill="none" xmlns="http://www.w3.org/2000/svg">
<g filter="url(#filter0_d_0_8)">
<g clip-path="url(#clip0_0_8)">
<mask id="path-1-inside-1_0_8" fill="white">
<path d="M4 0H516V512H4V0Z"/>
</mask>
<path d="M4 0H516V512H4V0Z" fill="#FFCE22"/>
<path d="M327 256L331 267.5L344.5 256H327Z" fill="#2137FC"/>
<path d="M255.5 256L258.5 263.5L265 256H255.5Z" fill="#2137FC"/>
<path fill-rule="evenodd" clip-rule="evenodd" d="M482 256H344.5H327H309L306.5 239.5L296 256H265H255.5H234.5L231.5 231L219.5 256H189.5H179H38C38 133.393 137.393 34 260 34C382.607 34 482 133.393 482 256Z" fill="#2137FC"/>
<path d="M179 256L182 267.5L189.5 256H179Z" fill="#2137FC"/>
<path fill-rule="evenodd" clip-rule="evenodd" d="M156.438 318.856L165.302 307.194C169.321 301.907 175.929 299.422 182.336 300.788C187.296 301.846 190.48 306.82 189.446 311.896C189.36 312.317 189.247 312.73 189.106 313.135C181.742 334.27 179.398 348.229 182.074 355.013C193.087 341.62 249.354 254.285 267.138 250.14C273.075 248.756 278.985 252.559 280.337 258.636C280.794 260.692 280.68 262.838 280.007 264.83C263.203 314.555 256.089 344.622 258.664 355.032C267.538 342.251 280.72 325.051 298.21 303.429C304.779 295.307 315.26 291.667 325.301 294.02C334.132 296.089 339.651 305.093 337.631 314.13C337.618 314.19 337.605 314.249 337.589 314.308C331.504 340.212 329.248 355.368 330.823 359.775C331.517 359.234 332.223 358.679 332.939 358.11C340.96 351.738 351.003 348.633 361.13 349.393L439.704 355.294L387.646 361.353C373.113 363.044 359.801 370.486 350.559 382.088L338.101 397.725C334.023 402.845 327.757 405.601 321.321 405.105C314.927 404.612 309.64 399.812 308.401 393.374C305.36 377.56 304.872 358.893 306.941 337.373C291.309 361.277 277.746 395.654 266.253 440.506C264.276 448.218 257.466 453.595 249.676 453.595C242.237 453.595 236.143 447.547 235.915 439.937L232.47 325.251L199.155 392.444C195.688 399.437 188.059 403.169 180.564 401.537C172.624 399.809 166.056 394.13 163.065 386.407L159.332 376.769C154.049 363.131 142.127 353.358 127.97 351.06C112.401 348.534 96.8314 346.008 81.2622 343.481L115.942 340.971C131.896 339.816 146.618 331.776 156.438 318.856Z" fill="white"/>
<path fill-rule="evenodd" clip-rule="evenodd" d="M516 0H4V512H516V0ZM260 478C382.607 478 482 378.607 482 256C482 133.393 382.607 34 260 34C137.393 34 38 133.393 38 256C38 378.607 137.393 478 260 478Z" fill="white"/>
</g>
<path d="M4 2H516V-2H4V2ZM516 510H4V514H516V510Z" fill="#2137FC" mask="url(#path-1-inside-1_0_8)"/>
</g>
<defs>
<filter id="filter0_d_0_8" x="0" y="0" width="520" height="520" filterUnits="userSpaceOnUse" color-interpolation-filters="sRGB">
<feFlood flood-opacity="0" result="BackgroundImageFix"/>
<feColorMatrix in="SourceAlpha" type="matrix" values="0 0 0 0 0 0 0 0 0 0 0 0 0 0 0 0 0 0 127 0" result="hardAlpha"/>
<feOffset dy="4"/>
<feGaussianBlur stdDeviation="2"/>
<feComposite in2="hardAlpha" operator="out"/>
<feColorMatrix type="matrix" values="0 0 0 0 0 0 0 0 0 0 0 0 0 0 0 0 0 0 0.25 0"/>
<feBlend mode="normal" in2="BackgroundImageFix" result="effect1_dropShadow_0_8"/>
<feBlend mode="normal" in="SourceGraphic" in2="effect1_dropShadow_0_8" result="shape"/>
</filter>
<clipPath id="clip0_0_8">
<path d="M4 0H516V512H4V0Z" fill="white"/>
</clipPath>
</defs>
</svg>
