<svg width="512" height="512" viewBox="0 0 512 512" fill="none" xmlns="http://www.w3.org/2000/svg">
<rect width="512" height="512" fill="#FFCE22"/>
<path d="M171.5 256H162C162 259.2 166.667 265.667 169 268.5L181.5 256H171.5Z" fill="#2137FC"/>
<path d="M246 256L254 268.5L267 256H246Z" fill="#2137FC"/>
<path d="M331 256V271.5L354 256H331Z" fill="#2137FC"/>
<path fill-rule="evenodd" clip-rule="evenodd" d="M0 0H512V256H354H331H321L309 232.5L292.5 256H267H246H235L222 223.5L206 256H181.5H171.5H162H0V0Z" fill="#2137FC"/>
<path fill-rule="evenodd" clip-rule="evenodd" d="M140.138 221.923L150.03 208.908C154.514 203.008 161.888 200.235 169.038 201.76C174.574 202.941 178.126 208.491 176.972 214.156C176.877 214.625 176.75 215.087 176.593 215.538C168.376 239.123 165.76 254.701 168.745 262.272C181.036 247.326 243.827 149.866 263.672 145.239C270.298 143.695 276.892 147.939 278.401 154.72C278.912 157.015 278.785 159.409 278.033 161.633C259.281 217.123 251.342 250.676 254.216 262.293C264.119 248.031 278.83 228.835 298.347 204.707C305.677 195.643 317.374 191.582 328.579 194.208C338.434 196.517 344.593 206.564 342.338 216.649C342.324 216.715 342.309 216.782 342.292 216.848C335.501 245.755 332.984 262.668 334.741 267.586C335.516 266.982 336.303 266.363 337.102 265.728C346.053 258.617 357.261 255.152 368.562 256.001L456.246 262.586L398.152 269.346C381.934 271.234 367.08 279.539 356.766 292.486L342.863 309.936C338.312 315.65 331.32 318.725 324.138 318.171C317.002 317.622 311.103 312.265 309.72 305.081C306.326 287.433 305.782 266.601 308.09 242.587C290.646 269.262 275.511 307.625 262.685 357.677C260.479 366.283 252.879 372.284 244.186 372.284C235.884 372.284 229.084 365.535 228.829 357.042L224.985 229.059L187.807 304.043C183.938 311.846 175.424 316.011 167.061 314.19C158.201 312.261 150.871 305.924 147.533 297.306L143.367 286.55C137.472 271.331 124.168 260.425 108.368 257.861C90.9941 255.042 73.6199 252.222 56.2456 249.403L94.946 246.602C112.75 245.313 129.179 236.341 140.138 221.923Z" fill="white"/>
</svg>
