<svg width="401" height="229" viewBox="0 0 401 229" fill="none" xmlns="http://www.w3.org/2000/svg">
<path fill-rule="evenodd" clip-rule="evenodd" d="M84.1377 77.9227L94.0296 64.9082C98.5138 59.0084 105.888 56.2354 113.038 57.7604C118.574 58.941 122.126 64.4908 120.972 70.1563C120.877 70.6251 120.75 71.0868 120.593 71.538C112.376 95.1234 109.76 110.701 112.745 118.272C125.036 103.326 187.827 5.86557 207.672 1.23926C214.298 -0.305321 220.892 3.93942 222.401 10.7205C222.912 13.0146 222.785 15.4093 222.033 17.633C203.281 73.1231 195.342 106.676 198.216 118.293C208.119 104.031 222.83 84.8355 242.347 60.7067C249.677 51.6434 261.374 47.5818 272.579 50.2076C282.434 52.5165 288.593 62.5639 286.338 72.6491C286.324 72.7154 286.309 72.7816 286.292 72.8478C279.501 101.755 276.984 118.668 278.741 123.586C279.516 122.982 280.303 122.363 281.102 121.728C290.053 114.617 301.261 111.152 312.562 112.001L400.246 118.586L342.152 125.346C325.934 127.234 311.08 135.539 300.766 148.486L286.863 165.936C282.312 171.65 275.32 174.725 268.138 174.171C261.002 173.622 255.103 168.265 253.72 161.081C250.326 143.433 249.782 122.601 252.09 98.5872C234.646 125.262 219.511 163.625 206.685 213.677C204.479 222.283 196.879 228.284 188.186 228.284C179.884 228.284 173.084 221.535 172.829 213.042L168.985 85.0594L131.807 160.043C127.938 167.846 119.424 172.011 111.061 170.19C102.201 168.261 94.8707 161.924 91.5326 153.306L87.3667 142.55C81.4719 127.331 68.1675 116.425 52.3684 113.861C34.9941 111.042 17.6199 108.222 0.245607 105.403L38.946 102.602C56.7498 101.313 73.1794 92.3409 84.1377 77.9227Z" fill="white"/>
</svg>
