<svg width="139" height="24" viewBox="0 0 139 24" fill="none" xmlns="http://www.w3.org/2000/svg">
<path d="M0.734375 0.25H9.6875C11.4375 0.25 12.9583 0.510417 14.25 1.03125C15.5417 1.55208 16.5365 2.32292 17.2344 3.34375C17.9427 4.36458 18.2969 5.625 18.2969 7.125C18.2969 8.42708 18.0938 9.51562 17.6875 10.3906C17.2812 11.2656 16.7135 11.9896 15.9844 12.5625C15.2656 13.125 14.4271 13.5885 13.4688 13.9531L11.6719 14.9688H4.15625L4.125 10.7344H9.6875C10.3854 10.7344 10.9635 10.6094 11.4219 10.3594C11.8802 10.1094 12.224 9.75521 12.4531 9.29688C12.6927 8.82812 12.8125 8.27083 12.8125 7.625C12.8125 6.96875 12.6927 6.40625 12.4531 5.9375C12.2135 5.46875 11.8594 5.10938 11.3906 4.85938C10.9323 4.60938 10.3646 4.48438 9.6875 4.48438H6.21875V23H0.734375V0.25ZM13.1875 23L8.15625 12.9375L13.9688 12.9062L19.0625 22.7656V23H13.1875ZM22.7031 14.7188V14.3906C22.7031 13.151 22.8802 12.0104 23.2344 10.9688C23.5885 9.91667 24.1094 9.00521 24.7969 8.23438C25.4844 7.46354 26.3333 6.86458 27.3438 6.4375C28.3542 6 29.5208 5.78125 30.8438 5.78125C32.1771 5.78125 33.349 6 34.3594 6.4375C35.3802 6.86458 36.2344 7.46354 36.9219 8.23438C37.6094 9.00521 38.1302 9.91667 38.4844 10.9688C38.8385 12.0104 39.0156 13.151 39.0156 14.3906V14.7188C39.0156 15.9479 38.8385 17.0885 38.4844 18.1406C38.1302 19.1823 37.6094 20.0938 36.9219 20.875C36.2344 21.6458 35.3854 22.2448 34.375 22.6719C33.3646 23.099 32.1979 23.3125 30.875 23.3125C29.5521 23.3125 28.3802 23.099 27.3594 22.6719C26.3385 22.2448 25.4844 21.6458 24.7969 20.875C24.1094 20.0938 23.5885 19.1823 23.2344 18.1406C22.8802 17.0885 22.7031 15.9479 22.7031 14.7188ZM27.9688 14.3906V14.7188C27.9688 15.3542 28.0156 15.9479 28.1094 16.5C28.2031 17.0521 28.3594 17.5365 28.5781 17.9531C28.7969 18.3594 29.0938 18.6771 29.4688 18.9062C29.8438 19.1354 30.3125 19.25 30.875 19.25C31.4271 19.25 31.8854 19.1354 32.25 18.9062C32.625 18.6771 32.9219 18.3594 33.1406 17.9531C33.3594 17.5365 33.5156 17.0521 33.6094 16.5C33.7031 15.9479 33.75 15.3542 33.75 14.7188V14.3906C33.75 13.776 33.7031 13.1979 33.6094 12.6562C33.5156 12.1042 33.3594 11.6198 33.1406 11.2031C32.9219 10.776 32.625 10.4427 32.25 10.2031C31.875 9.96354 31.4062 9.84375 30.8438 9.84375C30.2917 9.84375 29.8281 9.96354 29.4531 10.2031C29.0885 10.4427 28.7969 10.776 28.5781 11.2031C28.3594 11.6198 28.2031 12.1042 28.1094 12.6562C28.0156 13.1979 27.9688 13.776 27.9688 14.3906ZM42.7031 14.7188V14.3906C42.7031 13.151 42.8802 12.0104 43.2344 10.9688C43.5885 9.91667 44.1094 9.00521 44.7969 8.23438C45.4844 7.46354 46.3333 6.86458 47.3438 6.4375C48.3542 6 49.5208 5.78125 50.8438 5.78125C52.1771 5.78125 53.349 6 54.3594 6.4375C55.3802 6.86458 56.2344 7.46354 56.9219 8.23438C57.6094 9.00521 58.1302 9.91667 58.4844 10.9688C58.8385 12.0104 59.0156 13.151 59.0156 14.3906V14.7188C59.0156 15.9479 58.8385 17.0885 58.4844 18.1406C58.1302 19.1823 57.6094 20.0938 56.9219 20.875C56.2344 21.6458 55.3854 22.2448 54.375 22.6719C53.3646 23.099 52.1979 23.3125 50.875 23.3125C49.5521 23.3125 48.3802 23.099 47.3594 22.6719C46.3385 22.2448 45.4844 21.6458 44.7969 20.875C44.1094 20.0938 43.5885 19.1823 43.2344 18.1406C42.8802 17.0885 42.7031 15.9479 42.7031 14.7188ZM47.9688 14.3906V14.7188C47.9688 15.3542 48.0156 15.9479 48.1094 16.5C48.2031 17.0521 48.3594 17.5365 48.5781 17.9531C48.7969 18.3594 49.0938 18.6771 49.4688 18.9062C49.8438 19.1354 50.3125 19.25 50.875 19.25C51.4271 19.25 51.8854 19.1354 52.25 18.9062C52.625 18.6771 52.9219 18.3594 53.1406 17.9531C53.3594 17.5365 53.5156 17.0521 53.6094 16.5C53.7031 15.9479 53.75 15.3542 53.75 14.7188V14.3906C53.75 13.776 53.7031 13.1979 53.6094 12.6562C53.5156 12.1042 53.3594 11.6198 53.1406 11.2031C52.9219 10.776 52.625 10.4427 52.25 10.2031C51.875 9.96354 51.4062 9.84375 50.8438 9.84375C50.2917 9.84375 49.8281 9.96354 49.4531 10.2031C49.0885 10.4427 48.7969 10.776 48.5781 11.2031C48.3594 11.6198 48.2031 12.1042 48.1094 12.6562C48.0156 13.1979 47.9688 13.776 47.9688 14.3906ZM68.6719 9.67188V23H63.4062V6.09375H68.3438L68.6719 9.67188ZM68.0312 13.9688L66.8281 14C66.8281 12.8125 66.9688 11.7188 67.25 10.7188C67.5312 9.71875 67.9479 8.84896 68.5 8.10938C69.0521 7.36979 69.7292 6.79688 70.5312 6.39062C71.3438 5.98438 72.2812 5.78125 73.3438 5.78125C74.0833 5.78125 74.7552 5.89583 75.3594 6.125C75.9635 6.34375 76.4844 6.69271 76.9219 7.17188C77.3594 7.64062 77.6927 8.25521 77.9219 9.01562C78.1615 9.76562 78.2812 10.6667 78.2812 11.7188V23H73.0156V12.3906C73.0156 11.6719 72.9323 11.1302 72.7656 10.7656C72.6094 10.401 72.3802 10.1562 72.0781 10.0312C71.776 9.90625 71.4062 9.84375 70.9688 9.84375C70.5104 9.84375 70.099 9.94792 69.7344 10.1562C69.3698 10.3646 69.0573 10.6562 68.7969 11.0312C68.5469 11.3958 68.3542 11.8281 68.2188 12.3281C68.0938 12.8281 68.0312 13.375 68.0312 13.9688ZM77.6875 13.9688L76.2188 14C76.2188 12.8125 76.349 11.7188 76.6094 10.7188C76.8802 9.71875 77.2812 8.84896 77.8125 8.10938C78.3542 7.36979 79.026 6.79688 79.8281 6.39062C80.6302 5.98438 81.5625 5.78125 82.625 5.78125C83.3958 5.78125 84.1042 5.89583 84.75 6.125C85.3958 6.35417 85.9531 6.72396 86.4219 7.23438C86.8906 7.74479 87.2552 8.42188 87.5156 9.26562C87.776 10.099 87.9062 11.1302 87.9062 12.3594V23H82.625V12.3594C82.625 11.6615 82.5417 11.1354 82.375 10.7812C82.2188 10.4167 81.9896 10.1719 81.6875 10.0469C81.3854 9.91146 81.026 9.84375 80.6094 9.84375C80.1094 9.84375 79.6771 9.94792 79.3125 10.1562C78.9479 10.3646 78.6406 10.6562 78.3906 11.0312C78.151 11.3958 77.974 11.8281 77.8594 12.3281C77.7448 12.8281 77.6875 13.375 77.6875 13.9688ZM93.2656 20.5312C93.2656 19.7812 93.5365 19.1562 94.0781 18.6562C94.6198 18.1458 95.3177 17.8906 96.1719 17.8906C97.0365 17.8906 97.7344 18.1458 98.2656 18.6562C98.8073 19.1562 99.0781 19.7812 99.0781 20.5312C99.0781 21.2812 98.8073 21.9115 98.2656 22.4219C97.7344 22.9219 97.0365 23.1719 96.1719 23.1719C95.3177 23.1719 94.6198 22.9219 94.0781 22.4219C93.5365 21.9115 93.2656 21.2812 93.2656 20.5312ZM114.484 18.8906V6.09375H119.766V23H114.828L114.484 18.8906ZM114.984 15.4531L116.359 15.4219C116.359 16.5573 116.224 17.6094 115.953 18.5781C115.682 19.5365 115.281 20.3698 114.75 21.0781C114.229 21.7865 113.583 22.3385 112.812 22.7344C112.052 23.1198 111.172 23.3125 110.172 23.3125C109.339 23.3125 108.573 23.1979 107.875 22.9688C107.188 22.7292 106.594 22.3594 106.094 21.8594C105.594 21.349 105.203 20.6979 104.922 19.9062C104.651 19.1042 104.516 18.1458 104.516 17.0312V6.09375H109.781V17.0625C109.781 17.4375 109.828 17.7604 109.922 18.0312C110.016 18.3021 110.151 18.5312 110.328 18.7188C110.505 18.8958 110.724 19.0312 110.984 19.125C111.255 19.2083 111.562 19.25 111.906 19.25C112.698 19.25 113.318 19.0833 113.766 18.75C114.214 18.4167 114.526 17.9635 114.703 17.3906C114.891 16.8177 114.984 16.1719 114.984 15.4531ZM133.531 18.25C133.531 17.9583 133.432 17.7083 133.234 17.5C133.047 17.2812 132.714 17.0833 132.234 16.9062C131.755 16.7188 131.083 16.5312 130.219 16.3438C129.396 16.1667 128.62 15.9323 127.891 15.6406C127.172 15.349 126.542 14.9948 126 14.5781C125.458 14.1615 125.031 13.6667 124.719 13.0938C124.417 12.5208 124.266 11.8646 124.266 11.125C124.266 10.4062 124.417 9.72917 124.719 9.09375C125.031 8.44792 125.484 7.88021 126.078 7.39062C126.682 6.89062 127.417 6.5 128.281 6.21875C129.146 5.92708 130.13 5.78125 131.234 5.78125C132.755 5.78125 134.068 6.01562 135.172 6.48438C136.276 6.94271 137.125 7.58854 137.719 8.42188C138.323 9.24479 138.625 10.1979 138.625 11.2812H133.359C133.359 10.8542 133.286 10.4896 133.141 10.1875C133.005 9.88542 132.781 9.65625 132.469 9.5C132.156 9.33333 131.74 9.25 131.219 9.25C130.854 9.25 130.521 9.31771 130.219 9.45312C129.927 9.58854 129.693 9.77604 129.516 10.0156C129.339 10.2552 129.25 10.5365 129.25 10.8594C129.25 11.0885 129.302 11.2969 129.406 11.4844C129.521 11.6615 129.693 11.8281 129.922 11.9844C130.151 12.1302 130.443 12.2656 130.797 12.3906C131.151 12.5052 131.578 12.6094 132.078 12.7031C133.214 12.9115 134.276 13.2083 135.266 13.5938C136.255 13.9792 137.057 14.526 137.672 15.2344C138.297 15.9427 138.609 16.8958 138.609 18.0938C138.609 18.8438 138.438 19.5365 138.094 20.1719C137.75 20.7969 137.255 21.349 136.609 21.8281C135.964 22.2969 135.188 22.6615 134.281 22.9219C133.375 23.1823 132.354 23.3125 131.219 23.3125C129.604 23.3125 128.24 23.026 127.125 22.4531C126.01 21.8698 125.167 21.1406 124.594 20.2656C124.031 19.3802 123.75 18.4844 123.75 17.5781H128.656C128.677 18.099 128.802 18.526 129.031 18.8594C129.271 19.1927 129.589 19.4375 129.984 19.5938C130.38 19.75 130.839 19.8281 131.359 19.8281C131.839 19.8281 132.234 19.7604 132.547 19.625C132.87 19.4896 133.115 19.3073 133.281 19.0781C133.448 18.8385 133.531 18.5625 133.531 18.25Z" fill="black"/>
</svg>
