<svg width="37" height="40" viewBox="0 0 37 40" fill="none" xmlns="http://www.w3.org/2000/svg">
<path d="M33.0687 5.3125C31.8547 2 28.3281 0.375 25.2062 1.6875C22.0844 3 20.5812 6.75 21.7953 10.0625C23.0672 13.375 26.5937 15 29.7156 13.6875C32.8375 12.375 34.3406 8.625 33.0687 5.3125Z" fill="#64892F"/>
<path d="M32.7219 5.50001C31.5656 2.37501 28.2125 0.875007 25.3219 2.12501C22.3734 3.37501 20.9859 6.87501 22.1422 10C23.2984 13.125 26.6515 14.625 29.5422 13.375C32.4906 12.125 33.9359 8.56251 32.7219 5.50001Z" fill="#FDFFB8"/>
<path d="M25.8422 2.1875C26.0156 2 29.1375 1.9375 29.1953 2.3125C29.2531 2.4375 29.3688 2.5 29.3688 2.625C29.3109 3.0625 27.6344 7 27.6344 7C27.5766 7 27.4031 6.75 27.2875 6.9375C27.1719 7.0625 25.6109 2.6875 25.6688 2.625C25.7844 2.5 25.7266 2.3125 25.8422 2.1875ZM29.0797 13.25C28.9063 13.4375 25.7844 13.5 25.7266 13.125C25.6688 13 25.5531 12.9375 25.5531 12.8125C25.6109 12.375 27.2875 8.4375 27.2875 8.4375C27.3453 8.4375 27.5188 8.6875 27.6344 8.5C27.75 8.375 29.3109 12.75 29.2531 12.8125C29.1375 12.9375 29.1953 13.125 29.0797 13.25ZM32.6641 6C32.8953 6.1875 32.8953 9.4375 32.5484 9.5625C32.4328 9.625 32.375 9.75 32.2594 9.75C31.7969 9.6875 28.0969 7.9375 28.0969 7.9375C28.0969 7.875 28.3281 7.6875 28.1547 7.5625C28.0391 7.4375 32.2016 5.8125 32.2594 5.875C32.375 5.9375 32.5484 5.875 32.6641 6ZM22.2578 9.375C22.0266 9.1875 22.0266 5.9375 22.3734 5.8125C22.4891 5.75 22.5469 5.625 22.6625 5.625C23.125 5.6875 26.825 7.4375 26.825 7.4375C26.825 7.5 26.5938 7.6875 26.7672 7.8125C26.8828 7.9375 22.7203 9.5625 22.6625 9.5C22.5469 9.5 22.3734 9.5 22.2578 9.375ZM22.7203 5.125C22.6625 4.875 24.8594 2.5 25.1484 2.6875C25.2641 2.75 25.4375 2.6875 25.4953 2.75C25.7266 3.125 27.2297 7.125 27.2297 7.125C27.1719 7.125 26.9406 7.125 26.9406 7.3125C26.9984 7.5 22.8938 5.5625 22.8938 5.5C22.8938 5.375 22.7203 5.25 22.7203 5.125ZM32.3172 10.375C32.375 10.625 30.1781 12.9375 29.8891 12.8125C29.7734 12.75 29.6 12.8125 29.5422 12.75C29.3109 12.375 27.8078 8.375 27.8078 8.375C27.8656 8.375 28.0969 8.375 28.0969 8.125C28.0391 7.9375 32.1438 9.875 32.1438 9.9375C32.1438 10.125 32.2594 10.25 32.3172 10.375ZM29.9469 2.625C30.1781 2.5625 32.4328 4.875 32.2594 5.1875C32.2016 5.3125 32.2594 5.4375 32.1438 5.5625C31.7969 5.8125 27.9813 7.375 27.9813 7.375C27.9813 7.3125 27.9813 7.0625 27.75 7.0625C27.5766 7.125 29.4266 2.8125 29.4844 2.8125C29.7156 2.8125 29.8313 2.6875 29.9469 2.625ZM24.975 12.75C24.7438 12.8125 22.4891 10.5 22.6625 10.1875C22.7203 10.0625 22.6625 9.9375 22.7781 9.8125C23.125 9.5625 26.9406 8 26.9406 8C26.9406 8.0625 26.9406 8.3125 27.1719 8.3125C27.3453 8.25 25.4953 12.5625 25.4375 12.5625C25.2063 12.5625 25.0906 12.6875 24.975 12.75Z" fill="#CED74D"/>
<path d="M14.0484 5.625C12.6031 4.0625 10.175 4.0625 8.72969 5.625L3.46875 11.1875L4.27813 12.0625L9.53906 6.5C10.5797 5.375 12.2563 5.375 13.2969 6.5L24.8594 18.8125L25.6688 17.9375L14.0484 5.625Z" fill="#C10259"/>
<path opacity="0.8" d="M27.5766 7.75H13.0656C15.7828 14.5625 7.57343 26.875 17.1125 28.9375C20.0609 30.0625 19.8875 32.625 18.9047 35.125C17.8641 37.75 15.4937 38.1875 15.4359 38.25C15.3781 38.3125 15.3203 38.4375 15.3203 38.5625C15.3203 38.6875 15.3781 38.8125 15.4937 38.8125H25.0906C25.1484 38.8125 25.2062 38.6875 25.2641 38.5625C25.2641 38.4375 25.2062 38.25 25.1484 38.25C25.1484 38.25 22.7203 37.75 21.6797 35.125C20.6969 32.6875 20.5812 30.0625 23.4719 28.9375C33.0687 26.8125 24.8594 14.5 27.5766 7.75ZM20.35 28.0625C8.26718 28.0625 16.7656 14.9375 14.2797 8.25H26.4203C23.9344 14.9375 32.4328 28.0625 20.35 28.0625Z" fill="#A1B8C7"/>
<g opacity="0.8">
<path opacity="0.8" d="M14.5688 20.1875C14.2219 24 14.8578 27.0625 20.2922 27.0625C24.8016 27.0625 26.0156 24.9375 26.0735 22C22.4891 22.75 19.2516 19.375 14.5688 20.1875Z" fill="#F65500"/>
<path opacity="0.8" d="M26.1313 22.0625C26.1891 19.875 25.6109 17.25 25.3219 14.8125C22.2 14.9375 19.3094 12.5 15.4359 12.75C15.3781 15.125 14.8 17.8125 14.5688 20.1875C19.2516 19.375 22.4891 22.75 26.1313 22.0625Z" fill="#FCB334"/>
</g>
</svg>
